<svg width="99" height="65" viewBox="0 0 99 65" fill="none" xmlns="http://www.w3.org/2000/svg">
<path d="M2.39647 42.9839L5.96928 48.449V42.9333C5.96928 42.5749 6.04437 42.3071 6.19454 42.13C6.34888 41.9487 6.55537 41.858 6.81399 41.858C7.08096 41.858 7.29162 41.9487 7.44596 42.13C7.6003 42.3071 7.67747 42.5749 7.67747 42.9333V50.2265C7.67747 51.0403 7.34376 51.4472 6.67634 51.4472C6.50948 51.4472 6.35931 51.4219 6.22582 51.3713C6.09234 51.325 5.9672 51.249 5.8504 51.1436C5.7336 51.0382 5.62514 50.9159 5.52503 50.7768C5.42492 50.6334 5.3248 50.4879 5.22469 50.3403L1.73948 44.9385V50.3719C1.73948 50.7262 1.65813 50.9939 1.49545 51.1753C1.33276 51.3566 1.12419 51.4472 0.869738 51.4472C0.60694 51.4472 0.396284 51.3566 0.23777 51.1753C0.0792567 50.9897 0 50.7219 0 50.3719V43.218C0 42.9144 0.0333713 42.6761 0.100114 42.5032C0.179371 42.3135 0.31077 42.1595 0.494312 42.0415C0.677854 41.9192 0.875996 41.858 1.08874 41.858C1.25559 41.858 1.39742 41.8854 1.51422 41.9403C1.63519 41.9951 1.73948 42.0689 1.82708 42.1616C1.91885 42.2544 2.01062 42.3746 2.10239 42.5222C2.19833 42.6698 2.29636 42.8237 2.39647 42.9839Z" fill="white"/>
<path d="M14.3601 48.3605H11.0188C11.0229 48.7526 11.1001 49.0984 11.2503 49.3978C11.4046 49.6972 11.6069 49.9228 11.8572 50.0746C12.1117 50.2265 12.3912 50.3024 12.6957 50.3024C12.9001 50.3024 13.0857 50.2792 13.2526 50.2328C13.4236 50.1822 13.5884 50.1063 13.7469 50.0051C13.9054 49.8996 14.0514 49.7879 14.1849 49.6698C14.3184 49.5517 14.4915 49.3915 14.7042 49.1891C14.7918 49.1132 14.917 49.0752 15.0796 49.0752C15.2548 49.0752 15.3967 49.1237 15.5051 49.2207C15.6136 49.3177 15.6678 49.4548 15.6678 49.6319C15.6678 49.7879 15.6073 49.9713 15.4863 50.1822C15.3654 50.3888 15.1818 50.5891 14.9357 50.7831C14.6938 50.9728 14.3872 51.131 14.0159 51.2575C13.6488 51.384 13.2254 51.4472 12.7457 51.4472C11.6487 51.4472 10.7956 51.131 10.1866 50.4984C9.57755 49.8659 9.27304 49.0078 9.27304 47.924C9.27304 47.4138 9.34812 46.9415 9.49829 46.5072C9.64846 46.0686 9.86746 45.6933 10.1553 45.3812C10.4431 45.0692 10.7977 44.8309 11.219 44.6665C11.6403 44.4978 12.1075 44.4135 12.6206 44.4135C13.288 44.4135 13.8595 44.5568 14.335 44.8436C14.8148 45.1261 15.1735 45.493 15.4113 45.9442C15.649 46.3954 15.7679 46.855 15.7679 47.3231C15.7679 47.7575 15.6449 48.04 15.3987 48.1707C15.1526 48.2972 14.8064 48.3605 14.3601 48.3605ZM11.0188 47.38H14.116C14.0743 46.7897 13.9158 46.349 13.6405 46.0581C13.3694 45.7629 13.0106 45.6153 12.5643 45.6153C12.1388 45.6153 11.7884 45.765 11.5131 46.0644C11.2419 46.3596 11.0772 46.7981 11.0188 47.38Z" fill="white"/>
<path d="M20.7423 50.7325L19.5034 48.8918L18.2332 50.7325C18.0497 50.9897 17.8933 51.1731 17.7639 51.2828C17.6388 51.3924 17.4782 51.4472 17.2821 51.4472C17.0652 51.4472 16.8796 51.3798 16.7253 51.2448C16.5751 51.1057 16.5 50.9475 16.5 50.7704C16.5 50.5891 16.6168 50.3298 16.8504 49.9924L18.3959 47.7532L17.0256 45.8873C16.7878 45.5794 16.6689 45.3117 16.6689 45.084C16.6689 44.9068 16.7399 44.7529 16.8817 44.6222C17.0235 44.4915 17.2091 44.4261 17.4386 44.4261C17.6388 44.4261 17.8036 44.483 17.9329 44.5969C18.0664 44.7108 18.2207 44.89 18.3959 45.1346L19.5034 46.6653L20.5796 45.1346C20.759 44.8815 20.9134 44.7002 21.0427 44.5906C21.1761 44.4809 21.3409 44.4261 21.537 44.4261C21.7622 44.4261 21.9479 44.4915 22.0939 44.6222C22.244 44.7487 22.3191 44.9026 22.3191 45.084C22.3191 45.2147 22.2878 45.3412 22.2253 45.4635C22.1669 45.5815 22.0751 45.7228 21.9499 45.8873L20.5796 47.7532L22.1251 49.9924C22.3671 50.3424 22.4881 50.606 22.4881 50.7831C22.4881 50.9644 22.413 51.1204 22.2628 51.2512C22.1126 51.3819 21.927 51.4472 21.7059 51.4472C21.5099 51.4472 21.343 51.3903 21.2053 51.2765C21.0719 51.1626 20.9175 50.9813 20.7423 50.7325Z" fill="white"/>
<path d="M23.8146 44.5779H24.0023V43.5406C24.0023 43.2623 24.0085 43.0451 24.021 42.8891C24.0377 42.7288 24.0794 42.5918 24.1462 42.4779C24.2129 42.3598 24.3089 42.265 24.434 42.1933C24.5592 42.1174 24.6989 42.0794 24.8532 42.0794C25.0702 42.0794 25.2662 42.1616 25.4414 42.3261C25.5582 42.4357 25.6312 42.5707 25.6604 42.7309C25.6938 42.887 25.7105 43.1104 25.7105 43.4014V44.5779H26.3362C26.5781 44.5779 26.7617 44.637 26.8868 44.755C27.0161 44.8689 27.0808 45.0165 27.0808 45.1978C27.0808 45.4297 26.989 45.5921 26.8055 45.6849C26.6261 45.7776 26.3675 45.824 26.0296 45.824H25.7105V48.9993C25.7105 49.2692 25.7188 49.478 25.7355 49.6255C25.7564 49.7689 25.8064 49.887 25.8857 49.9798C25.9691 50.0683 26.1026 50.1126 26.2861 50.1126C26.3862 50.1126 26.5218 50.0957 26.6928 50.062C26.8639 50.024 26.9973 50.0051 27.0933 50.0051C27.2309 50.0051 27.354 50.062 27.4625 50.1758C27.5751 50.2855 27.6314 50.4225 27.6314 50.587C27.6314 50.8653 27.4812 51.0783 27.1809 51.2259C26.8805 51.3734 26.4488 51.4472 25.8857 51.4472C25.3517 51.4472 24.9471 51.3566 24.6718 51.1753C24.3965 50.9939 24.215 50.743 24.1274 50.4225C24.044 50.1021 24.0023 49.674 24.0023 49.1385V45.824H23.777C23.5309 45.824 23.3432 45.765 23.2139 45.6469C23.0846 45.5288 23.0199 45.3791 23.0199 45.1978C23.0199 45.0165 23.0867 44.8689 23.2201 44.755C23.3578 44.637 23.5559 44.5779 23.8146 44.5779Z" fill="white"/>
<path d="M39.9642 47.5192V49.2966C39.9642 49.5328 39.9412 49.7225 39.8953 49.8659C39.8495 50.0051 39.7639 50.1316 39.6388 50.2454C39.5178 50.3593 39.3614 50.4689 39.1695 50.5743C38.6147 50.878 38.0808 51.0993 37.5677 51.2385C37.0546 51.3777 36.4956 51.4472 35.8908 51.4472C35.1858 51.4472 34.5434 51.3376 33.9636 51.1183C33.3838 50.899 32.8895 50.5807 32.4807 50.1632C32.0719 49.7457 31.7569 49.2397 31.5358 48.6451C31.3189 48.0505 31.2105 47.3864 31.2105 46.6526C31.2105 45.9315 31.3168 45.2716 31.5296 44.6728C31.7423 44.074 32.0552 43.5659 32.4681 43.1484C32.8811 42.7309 33.3838 42.4126 33.9761 42.1933C34.5685 41.9698 35.24 41.858 35.9909 41.858C36.6083 41.858 37.1547 41.9424 37.6303 42.111C38.1058 42.2755 38.4917 42.4842 38.7878 42.7373C39.084 42.9903 39.3072 43.258 39.4573 43.5406C39.6075 43.8231 39.6826 44.074 39.6826 44.2933C39.6826 44.5294 39.595 44.7318 39.4198 44.9005C39.2488 45.065 39.0423 45.1472 38.8003 45.1472C38.6669 45.1472 38.5375 45.1156 38.4124 45.0523C38.2914 44.9891 38.1892 44.9005 38.1058 44.7867C37.8764 44.424 37.6824 44.1499 37.5239 43.9644C37.3654 43.7788 37.1506 43.6228 36.8794 43.4963C36.6124 43.3698 36.2704 43.3065 35.8532 43.3065C35.4236 43.3065 35.0398 43.3824 34.7019 43.5342C34.3641 43.6818 34.0741 43.899 33.8322 44.1858C33.5944 44.4683 33.4109 44.8162 33.2816 45.2294C33.1564 45.6427 33.0939 46.1002 33.0939 46.602C33.0939 47.69 33.34 48.527 33.8322 49.1132C34.3286 49.6993 35.019 49.9924 35.9033 49.9924C36.333 49.9924 36.7355 49.9355 37.1109 49.8216C37.4905 49.7078 37.8743 49.5454 38.2622 49.3346V47.8291H36.8231C36.4769 47.8291 36.2141 47.7764 36.0347 47.671C35.8595 47.5656 35.7719 47.3864 35.7719 47.1334C35.7719 46.9267 35.8449 46.7559 35.9909 46.621C36.1411 46.4861 36.3434 46.4186 36.5978 46.4186H38.7065C38.9651 46.4186 39.1841 46.4418 39.3635 46.4882C39.5429 46.5346 39.6868 46.6379 39.7952 46.7981C39.9079 46.9584 39.9642 47.1987 39.9642 47.5192Z" fill="white"/>
<path d="M46.384 48.3605H43.0427C43.0468 48.7526 43.124 49.0984 43.2742 49.3978C43.4285 49.6972 43.6308 49.9228 43.8811 50.0746C44.1356 50.2265 44.4151 50.3024 44.7196 50.3024C44.924 50.3024 45.1096 50.2792 45.2765 50.2328C45.4475 50.1822 45.6123 50.1063 45.7708 50.0051C45.9293 49.8996 46.0753 49.7879 46.2088 49.6698C46.3423 49.5517 46.5154 49.3915 46.7281 49.1891C46.8157 49.1132 46.9408 49.0752 47.1035 49.0752C47.2787 49.0752 47.4206 49.1237 47.529 49.2207C47.6375 49.3177 47.6917 49.4548 47.6917 49.6319C47.6917 49.7879 47.6312 49.9713 47.5102 50.1822C47.3893 50.3888 47.2057 50.5891 46.9596 50.7831C46.7177 50.9728 46.4111 51.131 46.0398 51.2575C45.6727 51.384 45.2493 51.4472 44.7696 51.4472C43.6726 51.4472 42.8195 51.131 42.2105 50.4984C41.6014 49.8659 41.2969 49.0078 41.2969 47.924C41.2969 47.4138 41.372 46.9415 41.5222 46.5072C41.6724 46.0686 41.8914 45.6933 42.1792 45.3812C42.467 45.0692 42.8216 44.8309 43.2429 44.6665C43.6642 44.4978 44.1314 44.4135 44.6445 44.4135C45.3119 44.4135 45.8834 44.5568 46.3589 44.8436C46.8386 45.1261 47.1974 45.493 47.4352 45.9442C47.6729 46.3954 47.7918 46.855 47.7918 47.3231C47.7918 47.7575 47.6688 48.04 47.4226 48.1707C47.1765 48.2972 46.8303 48.3605 46.384 48.3605ZM43.0427 47.38H46.1399C46.0982 46.7897 45.9397 46.349 45.6644 46.0581C45.3933 45.7629 45.0345 45.6153 44.5882 45.6153C44.1627 45.6153 43.8123 45.765 43.537 46.0644C43.2658 46.3596 43.1011 46.7981 43.0427 47.38Z" fill="white"/>
<path d="M50.789 45.3812V45.59C51.0893 45.1894 51.4168 44.8963 51.7713 44.7108C52.1301 44.521 52.541 44.4261 53.004 44.4261C53.4545 44.4261 53.857 44.5252 54.2116 44.7234C54.5662 44.9216 54.8311 45.202 55.0063 45.5647C55.1189 45.7755 55.1919 46.0032 55.2253 46.2478C55.2586 46.4924 55.2753 46.8044 55.2753 47.184V50.3972C55.2753 50.743 55.1961 51.0045 55.0375 51.1816C54.8832 51.3587 54.6809 51.4472 54.4306 51.4472C54.1762 51.4472 53.9697 51.3566 53.8112 51.1753C53.6526 50.9939 53.5734 50.7346 53.5734 50.3972V47.5192C53.5734 46.9499 53.4941 46.5156 53.3356 46.2162C53.1813 45.9126 52.8705 45.7608 52.4033 45.7608C52.0988 45.7608 51.8214 45.8535 51.5711 46.0391C51.3208 46.2204 51.1373 46.4713 51.0205 46.7918C50.9371 47.049 50.8953 47.5297 50.8953 48.234V50.3972C50.8953 50.7472 50.814 51.0108 50.6513 51.1879C50.4928 51.3608 50.2863 51.4472 50.0319 51.4472C49.7857 51.4472 49.5834 51.3566 49.4249 51.1753C49.2664 50.9939 49.1871 50.7346 49.1871 50.3972V45.4065C49.1871 45.0776 49.2581 44.833 49.3999 44.6728C49.5417 44.5083 49.7357 44.4261 49.9818 44.4261C50.132 44.4261 50.2675 44.462 50.3885 44.5336C50.5095 44.6053 50.6054 44.7129 50.6763 44.8562C50.7514 44.9996 50.789 45.1746 50.789 45.3812Z" fill="white"/>
<path d="M61.7514 48.3605H58.4101C58.4143 48.7526 58.4915 49.0984 58.6416 49.3978C58.796 49.6972 58.9983 49.9228 59.2486 50.0746C59.503 50.2265 59.7825 50.3024 60.087 50.3024C60.2914 50.3024 60.4771 50.2792 60.6439 50.2328C60.8149 50.1822 60.9797 50.1063 61.1382 50.0051C61.2967 49.8996 61.4427 49.7879 61.5762 49.6698C61.7097 49.5517 61.8828 49.3915 62.0956 49.1891C62.1832 49.1132 62.3083 49.0752 62.471 49.0752C62.6462 49.0752 62.788 49.1237 62.8965 49.2207C63.0049 49.3177 63.0592 49.4548 63.0592 49.6319C63.0592 49.7879 62.9987 49.9713 62.8777 50.1822C62.7567 50.3888 62.5732 50.5891 62.3271 50.7831C62.0851 50.9728 61.7785 51.131 61.4073 51.2575C61.0402 51.384 60.6168 51.4472 60.1371 51.4472C59.04 51.4472 58.187 51.131 57.5779 50.4984C56.9689 49.8659 56.6644 49.0078 56.6644 47.924C56.6644 47.4138 56.7395 46.9415 56.8897 46.5072C57.0398 46.0686 57.2588 45.6933 57.5466 45.3812C57.8345 45.0692 58.189 44.8309 58.6104 44.6665C59.0317 44.4978 59.4989 44.4135 60.012 44.4135C60.6794 44.4135 61.2509 44.5568 61.7264 44.8436C62.2061 45.1261 62.5648 45.493 62.8026 45.9442C63.0404 46.3954 63.1593 46.855 63.1593 47.3231C63.1593 47.7575 63.0362 48.04 62.7901 48.1707C62.544 48.2972 62.1978 48.3605 61.7514 48.3605ZM58.4101 47.38H61.5074C61.4657 46.7897 61.3072 46.349 61.0319 46.0581C60.7607 45.7629 60.402 45.6153 59.9556 45.6153C59.5302 45.6153 59.1798 45.765 58.9044 46.0644C58.6333 46.3596 58.4685 46.7981 58.4101 47.38Z" fill="white"/>
<path d="M66.3003 48.9551V50.3972C66.3003 50.7472 66.219 51.0108 66.0563 51.1879C65.8936 51.3608 65.6871 51.4472 65.4369 51.4472C65.1908 51.4472 64.9884 51.3587 64.8299 51.1816C64.6714 51.0045 64.5922 50.743 64.5922 50.3972V45.59C64.5922 44.8141 64.8696 44.4261 65.4243 44.4261C65.708 44.4261 65.9124 44.5168 66.0375 44.6981C66.1627 44.8794 66.2315 45.1472 66.244 45.5014C66.4484 45.1472 66.657 44.8794 66.8697 44.6981C67.0867 44.5168 67.3745 44.4261 67.7332 44.4261C68.092 44.4261 68.4403 44.5168 68.7782 44.6981C69.116 44.8794 69.285 45.1198 69.285 45.4192C69.285 45.63 69.212 45.805 69.066 45.9442C68.9242 46.0791 68.7698 46.1466 68.603 46.1466C68.5404 46.1466 68.3881 46.1087 68.1462 46.0328C67.9084 45.9526 67.6978 45.9126 67.5142 45.9126C67.2639 45.9126 67.0595 45.98 66.901 46.115C66.7425 46.2457 66.6195 46.4418 66.5319 46.7032C66.4443 46.9647 66.3838 47.2767 66.3504 47.6394C66.317 47.9978 66.3003 48.4364 66.3003 48.9551Z" fill="white"/>
<path d="M74.2156 50.4731C73.8026 50.7978 73.4022 51.0424 73.0142 51.2069C72.6305 51.3671 72.1987 51.4472 71.719 51.4472C71.281 51.4472 70.8951 51.3608 70.5614 51.1879C70.2319 51.0108 69.9774 50.7725 69.7981 50.4731C69.6187 50.1737 69.529 49.849 69.529 49.499C69.529 49.0267 69.6771 48.624 69.9733 48.2909C70.2694 47.9578 70.6762 47.7343 71.1934 47.6204C71.3019 47.5951 71.5709 47.5382 72.0006 47.4496C72.4302 47.3611 72.7973 47.281 73.1018 47.2093C73.4105 47.1334 73.7442 47.0427 74.103 46.9373C74.0821 46.4819 73.9903 46.1487 73.8276 45.9379C73.6691 45.7228 73.3375 45.6153 72.8328 45.6153C72.3989 45.6153 72.0715 45.6764 71.8504 45.7987C71.6335 45.921 71.4458 46.1044 71.2873 46.349C71.1329 46.5936 71.0224 46.7559 70.9556 46.8361C70.8931 46.912 70.7554 46.9499 70.5427 46.9499C70.3508 46.9499 70.1839 46.8888 70.0421 46.7665C69.9044 46.64 69.8356 46.4797 69.8356 46.2858C69.8356 45.9822 69.942 45.687 70.1547 45.4002C70.3675 45.1135 70.6991 44.8773 71.1496 44.6918C71.6001 44.5062 72.1612 44.4135 72.8328 44.4135C73.5836 44.4135 74.1739 44.5041 74.6035 44.6855C75.0332 44.8626 75.3356 45.1451 75.5108 45.5331C75.6902 45.921 75.7799 46.4355 75.7799 47.0764C75.7799 47.4813 75.7778 47.8249 75.7736 48.1075C75.7736 48.39 75.7715 48.7042 75.7674 49.0499C75.7674 49.3746 75.8195 49.7141 75.9238 50.0683C76.0322 50.4183 76.0865 50.6439 76.0865 50.7451C76.0865 50.9222 76.003 51.0846 75.8362 51.2322C75.6735 51.3756 75.4879 51.4472 75.2793 51.4472C75.1041 51.4472 74.931 51.365 74.76 51.2006C74.5889 51.0319 74.4075 50.7894 74.2156 50.4731ZM74.103 47.9746C73.8527 48.0674 73.4877 48.1665 73.008 48.2719C72.5324 48.3731 72.2029 48.449 72.0193 48.4996C71.8358 48.546 71.6606 48.6409 71.4938 48.7843C71.3269 48.9234 71.2435 49.1195 71.2435 49.3725C71.2435 49.634 71.3415 49.8575 71.5375 50.043C71.7336 50.2243 71.9901 50.315 72.3072 50.315C72.6451 50.315 72.9558 50.2412 73.2395 50.0936C73.5273 49.9418 73.738 49.7478 73.8715 49.5117C74.0258 49.2502 74.103 48.8201 74.103 48.2213V47.9746Z" fill="white"/>
<path d="M77.2878 44.5779H77.4755V43.5406C77.4755 43.2623 77.4818 43.0451 77.4943 42.8891C77.511 42.7288 77.5527 42.5918 77.6195 42.4779C77.6862 42.3598 77.7822 42.265 77.9073 42.1933C78.0324 42.1174 78.1722 42.0794 78.3265 42.0794C78.5434 42.0794 78.7395 42.1616 78.9147 42.3261C79.0315 42.4357 79.1045 42.5707 79.1337 42.7309C79.1671 42.887 79.1837 43.1104 79.1837 43.4014V44.5779H79.8095C80.0514 44.5779 80.2349 44.637 80.3601 44.755C80.4894 44.8689 80.554 45.0165 80.554 45.1978C80.554 45.4297 80.4623 45.5921 80.2787 45.6849C80.0994 45.7776 79.8407 45.824 79.5028 45.824H79.1837V48.9993C79.1837 49.2692 79.1921 49.478 79.2088 49.6255C79.2296 49.7689 79.2797 49.887 79.3589 49.9798C79.4424 50.0683 79.5758 50.1126 79.7594 50.1126C79.8595 50.1126 79.9951 50.0957 80.1661 50.062C80.3371 50.024 80.4706 50.0051 80.5666 50.0051C80.7042 50.0051 80.8273 50.062 80.9357 50.1758C81.0484 50.2855 81.1047 50.4225 81.1047 50.587C81.1047 50.8653 80.9545 51.0783 80.6542 51.2259C80.3538 51.3734 79.9221 51.4472 79.3589 51.4472C78.825 51.4472 78.4204 51.3566 78.1451 51.1753C77.8697 50.9939 77.6883 50.743 77.6007 50.4225C77.5173 50.1021 77.4755 49.674 77.4755 49.1385V45.824H77.2503C77.0042 45.824 76.8165 45.765 76.6871 45.6469C76.5578 45.5288 76.4932 45.3791 76.4932 45.1978C76.4932 45.0165 76.5599 44.8689 76.6934 44.755C76.8311 44.637 77.0292 44.5779 77.2878 44.5779Z" fill="white"/>
<path d="M83.4448 45.4065V50.3972C83.4448 50.743 83.3635 51.0045 83.2008 51.1816C83.0381 51.3587 82.8316 51.4472 82.5814 51.4472C82.3311 51.4472 82.1267 51.3566 81.9681 51.1753C81.8138 50.9939 81.7366 50.7346 81.7366 50.3972V45.4571C81.7366 45.1156 81.8138 44.8583 81.9681 44.6855C82.1267 44.5126 82.3311 44.4261 82.5814 44.4261C82.8316 44.4261 83.0381 44.5126 83.2008 44.6855C83.3635 44.8583 83.4448 45.0987 83.4448 45.4065ZM82.6001 43.6228C82.3624 43.6228 82.158 43.549 81.9869 43.4014C81.8201 43.2538 81.7366 43.0451 81.7366 42.7752C81.7366 42.5306 81.8222 42.3303 81.9932 42.1743C82.1684 42.0141 82.3707 41.9339 82.6001 41.9339C82.8212 41.9339 83.0173 42.0056 83.1883 42.149C83.3593 42.2924 83.4448 42.5011 83.4448 42.7752C83.4448 43.0409 83.3614 43.2496 83.1945 43.4014C83.0277 43.549 82.8296 43.6228 82.6001 43.6228Z" fill="white"/>
<path d="M91.6104 47.9367C91.6104 48.4511 91.5311 48.9255 91.3726 49.3599C91.2141 49.7942 90.9846 50.1674 90.6843 50.4795C90.384 50.7915 90.0252 51.0319 89.6081 51.2006C89.1909 51.365 88.7217 51.4472 88.2002 51.4472C87.683 51.4472 87.2179 51.3629 86.8049 51.1942C86.3919 51.0256 86.0332 50.7852 85.7287 50.4731C85.4283 50.1569 85.1989 49.7858 85.0404 49.3599C84.8861 48.9298 84.8089 48.4554 84.8089 47.9367C84.8089 47.4138 84.8881 46.9352 85.0467 46.5008C85.2052 46.0665 85.4325 45.6954 85.7287 45.3876C86.0248 45.0797 86.3836 44.8436 86.8049 44.6791C87.2262 44.5105 87.6913 44.4261 88.2002 44.4261C88.7175 44.4261 89.1868 44.5105 89.6081 44.6791C90.0294 44.8478 90.3902 45.0882 90.6906 45.4002C90.9909 45.7123 91.2182 46.0834 91.3726 46.5135C91.5311 46.9436 91.6104 47.418 91.6104 47.9367ZM89.8959 47.9367C89.8959 47.2325 89.7416 46.6843 89.4329 46.2921C89.1284 45.8999 88.7175 45.7038 88.2002 45.7038C87.8665 45.7038 87.5724 45.7924 87.318 45.9695C87.0635 46.1424 86.8675 46.3996 86.7298 46.7412C86.5922 47.0828 86.5233 47.4813 86.5233 47.9367C86.5233 48.3879 86.5901 48.7822 86.7236 49.1195C86.8612 49.4569 87.0552 49.7162 87.3055 49.8975C87.5599 50.0746 87.8582 50.1632 88.2002 50.1632C88.7175 50.1632 89.1284 49.9671 89.4329 49.5749C89.7416 49.1786 89.8959 48.6325 89.8959 47.9367Z" fill="white"/>
<path d="M94.5137 45.3812V45.59C94.814 45.1894 95.1415 44.8963 95.496 44.7108C95.8548 44.521 96.2657 44.4261 96.7287 44.4261C97.1792 44.4261 97.5817 44.5252 97.9363 44.7234C98.2909 44.9216 98.5558 45.202 98.731 45.5647C98.8436 45.7755 98.9166 46.0032 98.95 46.2478C98.9833 46.4924 99 46.8044 99 47.184V50.3972C99 50.743 98.9208 51.0045 98.7622 51.1816C98.6079 51.3587 98.4056 51.4472 98.1553 51.4472C97.9008 51.4472 97.6944 51.3566 97.5358 51.1753C97.3773 50.9939 97.2981 50.7346 97.2981 50.3972V47.5192C97.2981 46.9499 97.2188 46.5156 97.0603 46.2162C96.906 45.9126 96.5952 45.7608 96.128 45.7608C95.8235 45.7608 95.5461 45.8535 95.2958 46.0391C95.0455 46.2204 94.862 46.4713 94.7452 46.7918C94.6617 47.049 94.62 47.5297 94.62 48.234V50.3972C94.62 50.7472 94.5387 51.0108 94.376 51.1879C94.2175 51.3608 94.011 51.4472 93.7565 51.4472C93.5104 51.4472 93.3081 51.3566 93.1496 51.1753C92.9911 50.9939 92.9118 50.7346 92.9118 50.3972V45.4065C92.9118 45.0776 92.9827 44.833 93.1246 44.6728C93.2664 44.5083 93.4604 44.4261 93.7065 44.4261C93.8567 44.4261 93.9922 44.462 94.1132 44.5336C94.2342 44.6053 94.3301 44.7129 94.401 44.8562C94.4761 44.9996 94.5137 45.1746 94.5137 45.3812Z" fill="white"/>
<path d="M29.9465 63.761L29.5085 62.5971H25.7793L25.3413 63.7863C25.1703 64.2502 25.0243 64.5643 24.9033 64.7288C24.7823 64.889 24.5842 64.9691 24.3089 64.9691C24.0753 64.9691 23.8688 64.8827 23.6894 64.7098C23.51 64.5369 23.4204 64.3408 23.4204 64.1216C23.4204 63.995 23.4412 63.8643 23.4829 63.7294C23.5247 63.5944 23.5935 63.4068 23.6894 63.1664L26.0358 57.1447C26.1026 56.9718 26.1818 56.7652 26.2736 56.5248C26.3696 56.2802 26.4697 56.0778 26.5739 55.9176C26.6824 55.7573 26.8221 55.6287 26.9932 55.5317C27.1684 55.4305 27.3832 55.3799 27.6377 55.3799C27.8963 55.3799 28.1111 55.4305 28.2821 55.5317C28.4573 55.6287 28.5971 55.7552 28.7014 55.9113C28.8098 56.0673 28.8995 56.236 28.9704 56.4173C29.0455 56.5944 29.1394 56.8327 29.252 57.1321L31.6485 63.1158C31.8362 63.5712 31.93 63.9023 31.93 64.1089C31.93 64.324 31.8404 64.5222 31.661 64.7035C31.4858 64.8806 31.273 64.9691 31.0228 64.9691C30.8768 64.9691 30.7516 64.9417 30.6473 64.8869C30.543 64.8363 30.4554 64.7667 30.3845 64.6782C30.3136 64.5854 30.2364 64.4463 30.153 64.2607C30.0738 64.0709 30.0049 63.9044 29.9465 63.761ZM26.2674 61.1866H29.008L27.6251 57.3598L26.2674 61.1866Z" fill="white"/>
<path d="M34.8771 62.477V63.9191C34.8771 64.2691 34.7958 64.5327 34.6331 64.7098C34.4704 64.8827 34.2639 64.9691 34.0137 64.9691C33.7675 64.9691 33.5652 64.8806 33.4067 64.7035C33.2482 64.5264 33.1689 64.2649 33.1689 63.9191V59.1119C33.1689 58.336 33.4463 57.948 34.0011 57.948C34.2848 57.948 34.4892 58.0387 34.6143 58.22C34.7395 58.4013 34.8083 58.6691 34.8208 59.0233C35.0252 58.6691 35.2338 58.4013 35.4465 58.22C35.6634 58.0387 35.9513 57.948 36.31 57.948C36.6688 57.948 37.0171 58.0387 37.3549 58.22C37.6928 58.4013 37.8618 58.6417 37.8618 58.9411C37.8618 59.1519 37.7888 59.3269 37.6428 59.4661C37.501 59.601 37.3466 59.6685 37.1798 59.6685C37.1172 59.6685 36.9649 59.6306 36.723 59.5547C36.4852 59.4745 36.2746 59.4345 36.091 59.4345C35.8407 59.4345 35.6363 59.5019 35.4778 59.6369C35.3193 59.7676 35.1962 59.9637 35.1087 60.2251C35.021 60.4866 34.9606 60.7986 34.9272 61.1613C34.8938 61.5197 34.8771 61.9583 34.8771 62.477Z" fill="white"/>
<path d="M44.4818 61.5851V63.8812C44.4818 64.2438 44.4005 64.5158 44.2378 64.6972C44.0751 64.8785 43.8603 64.9691 43.5933 64.9691C43.3347 64.9691 43.124 64.8785 42.9613 64.6972C42.8028 64.5158 42.7236 64.2438 42.7236 63.8812V61.1297C42.7236 60.6953 42.709 60.358 42.6798 60.1176C42.6506 59.8773 42.5713 59.6812 42.442 59.5294C42.3127 59.3733 42.1083 59.2953 41.8288 59.2953C41.2698 59.2953 40.9007 59.4893 40.7213 59.8773C40.5461 60.2652 40.4585 60.8218 40.4585 61.5471V63.8812C40.4585 64.2396 40.3771 64.5116 40.2145 64.6972C40.0559 64.8785 39.8453 64.9691 39.5825 64.9691C39.3239 64.9691 39.1111 64.8785 38.9443 64.6972C38.7816 64.5116 38.7002 64.2396 38.7002 63.8812V58.9411C38.7002 58.6164 38.7732 58.3697 38.9192 58.201C39.0694 58.0324 39.2655 57.948 39.5074 57.948C39.741 57.948 39.935 58.0281 40.0893 58.1884C40.2478 58.3444 40.3271 58.5616 40.3271 58.8399V59.0044C40.6232 58.6459 40.9403 58.3824 41.2782 58.2137C41.616 58.045 41.9915 57.9607 42.4044 57.9607C42.8341 57.9607 43.2033 58.0471 43.512 58.22C43.8206 58.3929 44.0751 58.6544 44.2753 59.0044C44.5631 58.6501 44.8718 58.3887 45.2014 58.22C45.5309 58.0471 45.8959 57.9607 46.2964 57.9607C46.7636 57.9607 47.1661 58.0534 47.504 58.239C47.8419 58.4245 48.0942 58.6902 48.2611 59.036C48.4071 59.348 48.4801 59.8393 48.4801 60.5098V63.8812C48.4801 64.2438 48.3988 64.5158 48.2361 64.6972C48.0734 64.8785 47.8586 64.9691 47.5916 64.9691C47.333 64.9691 47.1202 64.8785 46.9534 64.6972C46.7907 64.5116 46.7093 64.2396 46.7093 63.8812V60.9779C46.7093 60.6068 46.6926 60.3095 46.6593 60.086C46.6301 59.8625 46.5466 59.6748 46.409 59.523C46.2713 59.3712 46.0628 59.2953 45.7833 59.2953C45.558 59.2953 45.3432 59.3628 45.1388 59.4977C44.9386 59.6327 44.7821 59.814 44.6695 60.0417C44.5444 60.3327 44.4818 60.8471 44.4818 61.5851Z" fill="white"/>
<path d="M54.9061 61.8824H51.5648C51.569 62.2746 51.6462 62.6203 51.7964 62.9197C51.9507 63.2191 52.153 63.4447 52.4033 63.5965C52.6578 63.7484 52.9372 63.8243 53.2418 63.8243C53.4462 63.8243 53.6318 63.8011 53.7986 63.7547C53.9697 63.7041 54.1344 63.6282 54.2929 63.527C54.4515 63.4215 54.5975 63.3098 54.7309 63.1917C54.8644 63.0737 55.0375 62.9134 55.2503 62.711C55.3379 62.6351 55.463 62.5971 55.6257 62.5971C55.8009 62.5971 55.9427 62.6456 56.0512 62.7426C56.1597 62.8396 56.2139 62.9767 56.2139 63.1538C56.2139 63.3098 56.1534 63.4932 56.0324 63.7041C55.9115 63.9107 55.7279 64.111 55.4818 64.305C55.2399 64.4947 54.9333 64.6529 54.562 64.7794C54.1949 64.9059 53.7715 64.9691 53.2918 64.9691C52.1947 64.9691 51.3417 64.6529 50.7327 64.0203C50.1236 63.3878 49.8191 62.5297 49.8191 61.4459C49.8191 60.9357 49.8942 60.4634 50.0444 60.0291C50.1945 59.5905 50.4135 59.2152 50.7014 58.9031C50.9892 58.5911 51.3438 58.3528 51.7651 58.1884C52.1864 58.0197 52.6536 57.9354 53.1667 57.9354C53.8341 57.9354 54.4056 58.0787 54.8811 58.3655C55.3608 58.648 55.7196 59.0149 55.9573 59.4661C56.1951 59.9173 56.314 60.377 56.314 60.845C56.314 61.2794 56.1909 61.5619 55.9448 61.6926C55.6987 61.8191 55.3525 61.8824 54.9061 61.8824ZM51.5648 60.902H54.6621C54.6204 60.3116 54.4619 59.8709 54.1866 59.58C53.9154 59.2848 53.5567 59.1372 53.1104 59.1372C52.6849 59.1372 52.3345 59.2869 52.0592 59.5863C51.788 59.8815 51.6232 60.32 51.5648 60.902Z" fill="white"/>
<path d="M59.3112 58.9031V59.1119C59.6115 58.7113 59.9389 58.4182 60.2935 58.2327C60.6523 58.0429 61.0631 57.948 61.5262 57.948C61.9767 57.948 62.3792 58.0471 62.7338 58.2453C63.0884 58.4435 63.3532 58.7239 63.5284 59.0866C63.6411 59.2974 63.7141 59.5251 63.7474 59.7697C63.7808 60.0143 63.7975 60.3264 63.7975 60.7059V63.9191C63.7975 64.2649 63.7182 64.5264 63.5597 64.7035C63.4054 64.8806 63.2031 64.9691 62.9528 64.9691C62.6983 64.9691 62.4919 64.8785 62.3333 64.6972C62.1748 64.5158 62.0956 64.2565 62.0956 63.9191V61.0411C62.0956 60.4718 62.0163 60.0375 61.8578 59.7381C61.7035 59.4345 61.3927 59.2827 60.9255 59.2827C60.621 59.2827 60.3436 59.3754 60.0933 59.561C59.843 59.7423 59.6595 59.9932 59.5427 60.3137C59.4592 60.5709 59.4175 61.0517 59.4175 61.7559V63.9191C59.4175 64.2691 59.3362 64.5327 59.1735 64.7098C59.015 64.8827 58.8085 64.9691 58.554 64.9691C58.3079 64.9691 58.1056 64.8785 57.9471 64.6972C57.7886 64.5158 57.7093 64.2565 57.7093 63.9191V58.9284C57.7093 58.5995 57.7802 58.355 57.9221 58.1947C58.0639 58.0303 58.2579 57.948 58.504 57.948C58.6542 57.948 58.7897 57.9839 58.9107 58.0556C59.0317 58.1272 59.1276 58.2348 59.1985 58.3781C59.2736 58.5215 59.3112 58.6965 59.3112 58.9031Z" fill="white"/>
<path d="M67.2139 58.9284V63.9191C67.2139 64.2649 67.1325 64.5264 66.9699 64.7035C66.8072 64.8806 66.6007 64.9691 66.3504 64.9691C66.1001 64.9691 65.8957 64.8785 65.7372 64.6972C65.5829 64.5158 65.5057 64.2565 65.5057 63.9191V58.9791C65.5057 58.6375 65.5829 58.3803 65.7372 58.2074C65.8957 58.0345 66.1001 57.948 66.3504 57.948C66.6007 57.948 66.8072 58.0345 66.9699 58.2074C67.1325 58.3803 67.2139 58.6206 67.2139 58.9284ZM66.3692 57.1447C66.1314 57.1447 65.927 57.0709 65.756 56.9233C65.5891 56.7757 65.5057 56.567 65.5057 56.2971C65.5057 56.0525 65.5912 55.8522 65.7622 55.6962C65.9374 55.536 66.1397 55.4558 66.3692 55.4558C66.5903 55.4558 66.7863 55.5275 66.9573 55.6709C67.1284 55.8143 67.2139 56.023 67.2139 56.2971C67.2139 56.5628 67.1305 56.7715 66.9636 56.9233C66.7967 57.0709 66.5986 57.1447 66.3692 57.1447Z" fill="white"/>
<path d="M73.3021 63.995C72.8891 64.3197 72.4886 64.5643 72.1007 64.7288C71.7169 64.889 71.2852 64.9691 70.8055 64.9691C70.3675 64.9691 69.9816 64.8827 69.6479 64.7098C69.3184 64.5327 69.0639 64.2944 68.8845 63.995C68.7052 63.6956 68.6155 63.3709 68.6155 63.0209C68.6155 62.5487 68.7636 62.1459 69.0597 61.8128C69.3559 61.4797 69.7626 61.2562 70.2799 61.1423C70.3883 61.117 70.6574 61.0601 71.087 60.9715C71.5167 60.883 71.8838 60.8029 72.1883 60.7312C72.497 60.6553 72.8307 60.5646 73.1894 60.4592C73.1686 60.0038 73.0768 59.6706 72.9141 59.4598C72.7556 59.2447 72.424 59.1372 71.9192 59.1372C71.4854 59.1372 71.158 59.1983 70.9369 59.3206C70.72 59.4429 70.5322 59.6263 70.3737 59.8709C70.2194 60.1155 70.1088 60.2779 70.0421 60.358C69.9795 60.4339 69.8419 60.4718 69.6291 60.4718C69.4372 60.4718 69.2704 60.4107 69.1286 60.2884C68.9909 60.1619 68.9221 60.0016 68.9221 59.8077C68.9221 59.5041 69.0285 59.2089 69.2412 58.9221C69.4539 58.6354 69.7856 58.3992 70.2361 58.2137C70.6866 58.0281 71.2476 57.9354 71.9192 57.9354C72.6701 57.9354 73.2603 58.026 73.69 58.2074C74.1197 58.3845 74.4221 58.667 74.5973 59.055C74.7766 59.4429 74.8663 59.9574 74.8663 60.5983C74.8663 61.0032 74.8642 61.3468 74.8601 61.6294C74.8601 61.9119 74.858 62.2261 74.8538 62.5718C74.8538 62.8965 74.906 63.236 75.0102 63.5902C75.1187 63.9402 75.1729 64.1658 75.1729 64.267C75.1729 64.4441 75.0895 64.6065 74.9226 64.7541C74.76 64.8975 74.5743 64.9691 74.3658 64.9691C74.1906 64.9691 74.0175 64.8869 73.8464 64.7225C73.6754 64.5538 73.4939 64.3113 73.3021 63.995ZM73.1894 61.4965C72.9391 61.5893 72.5741 61.6884 72.0944 61.7938C71.6189 61.895 71.2894 61.9709 71.1058 62.0215C70.9223 62.0679 70.7471 62.1628 70.5802 62.3062C70.4134 62.4453 70.3299 62.6414 70.3299 62.8944C70.3299 63.1559 70.428 63.3794 70.624 63.5649C70.8201 63.7462 71.0766 63.8369 71.3936 63.8369C71.7315 63.8369 72.0423 63.7631 72.3259 63.6155C72.6138 63.4637 72.8244 63.2697 72.9579 63.0336C73.1123 62.7721 73.1894 62.342 73.1894 61.7432V61.4965Z" fill="white"/>
<path d="M53.8624 20.1469C55.626 20.1469 57.0556 18.6555 57.0556 16.8158C57.0556 14.976 55.626 13.4846 53.8624 13.4846C52.0988 13.4846 50.6692 14.976 50.6692 16.8158C50.6692 18.6555 52.0988 20.1469 53.8624 20.1469Z" fill="white"/>
<path fill-rule="evenodd" clip-rule="evenodd" d="M53.8623 13.5275C52.1214 13.5275 50.7102 14.9997 50.7102 16.8157C50.7102 18.6317 52.1214 20.1039 53.8623 20.1039C55.6031 20.1039 57.0143 18.6317 57.0143 16.8157C57.0143 14.9997 55.6031 13.5275 53.8623 13.5275ZM50.6279 16.8157C50.6279 14.9523 52.076 13.4417 53.8623 13.4417C55.6485 13.4417 57.0966 14.9523 57.0966 16.8157C57.0966 18.6791 55.6485 20.1897 53.8623 20.1897C52.076 20.1897 50.6279 18.6791 50.6279 16.8157Z" fill="white"/>
<path d="M39.4049 33.8954C42.3514 34.5038 43.54 32.4752 43.54 32.4752C43.54 32.4752 29.4922 18.9807 33.6066 6.24483C34.2631 4.21371 36.8574 3.02696 37.9704 2.99349C45.0774 2.7764 48.361 16.1739 48.361 16.1739C50.772 12.315 53.8887 10.1475 53.8887 10.1475C60.9126 5.46482 64.986 10.1475 64.986 10.1475C74.9185 21.3328 52.4961 37.9602 52.4961 37.9602C52.4961 37.9602 71.1783 28.7039 70.5967 16.1739C70.0151 3.64393 58.1718 0.11028 50.4183 6.48339C50.4183 6.48339 45.5767 -0.0853672 40.7556 0.00130091C40.7556 0.00130091 29.8459 -0.389135 29.0356 12.3579C28.4508 21.5533 35.2189 28.8163 38.0263 32.9909C38.3446 33.4646 38.8291 33.7855 39.3753 33.8894C39.3852 33.8919 39.3959 33.8937 39.4049 33.8954Z" fill="white"/>
<path fill-rule="evenodd" clip-rule="evenodd" d="M48.9845 37.1816C45.6589 38.7725 43.0464 37.3223 43.0464 37.3223C46.7405 38.6283 53.8319 33.4746 55.3438 30.5133C56.2363 28.7653 55.1908 28.447 54.5122 28.6709C54.1816 28.7798 53.9045 28.9425 53.6396 29.098C53.0884 29.4217 52.5894 29.7146 51.7689 29.4295C50.5944 29.0211 49.8599 26.8633 49.3523 25.3723C49.2402 25.0431 49.1392 24.7465 49.047 24.5083C48.6522 23.4897 46.6361 22.4712 46.8442 25.4625C47.1428 29.7581 47.1551 30.4266 46.7405 31.4675C46.7211 31.5164 46.7013 31.5665 46.6812 31.6177C46.1983 32.8437 45.4805 34.6663 42.5723 35.1878C39.7221 35.6983 38.2475 33.2283 38.2475 33.2283C41.0506 35.1448 43.436 32.4847 43.436 32.4847C46.4754 27.8235 43.0781 21.2972 40.0522 15.4844C38.3922 12.2955 36.844 9.32131 36.5316 6.98761C36.1417 4.07779 38.2105 5.36923 38.5107 5.86607C51.7361 27.7696 55.8272 22.9663 59.8289 18.2679C60.065 17.9906 60.3009 17.7137 60.5383 17.4427C62.8884 14.7594 63.0734 16.8901 63.0734 16.8901C62.8785 27.0757 53.878 34.8407 48.9845 37.1816ZM55.0287 26.3532C55.0287 27.5385 54.1077 28.4993 52.9715 28.4993C51.8353 28.4993 50.9142 27.5385 50.9142 26.3532C50.9142 25.1679 51.8353 24.2071 52.9715 24.2071C54.1077 24.2071 55.0287 25.1679 55.0287 26.3532Z" fill="white"/>
<path fill-rule="evenodd" clip-rule="evenodd" d="M38.0414 5.38588C38.2739 5.53283 38.4657 5.71089 38.5456 5.84325L38.5457 5.84326C41.8513 11.318 44.5852 15.1222 46.8885 17.6758C49.1923 20.2299 51.0624 21.5297 52.6401 22.0015C54.215 22.4725 55.5027 22.1197 56.6475 21.3564C57.7947 20.5914 58.7969 19.4152 59.7983 18.2395L59.7985 18.2392C60.0345 17.9621 60.2705 17.685 60.508 17.4138C61.097 16.7414 61.5533 16.3669 61.9079 16.1859C62.2634 16.0043 62.5218 16.0151 62.7072 16.1227C62.8901 16.2288 62.9913 16.423 63.0466 16.5847C63.0746 16.6662 63.0915 16.7412 63.1014 16.7958C63.1064 16.8232 63.1096 16.8455 63.1117 16.8611C63.1127 16.869 63.1134 16.8751 63.1138 16.8794C63.1141 16.8815 63.1142 16.8831 63.1143 16.8843L63.1145 16.8857L63.1145 16.8861L63.1145 16.8862C63.1145 16.8862 63.1145 16.8863 63.0736 16.8901L63.1145 16.8863L63.1147 16.8886L63.1147 16.891C63.0169 21.997 60.7122 26.4939 57.8222 30.0056C54.9323 33.5172 51.4541 36.0475 49.0018 37.2206C47.3305 38.0201 45.8377 38.0557 44.7625 37.891C44.2249 37.8087 43.7918 37.6764 43.4928 37.5645C43.3432 37.5085 43.2272 37.4576 43.1484 37.4207C43.109 37.4022 43.0788 37.3872 43.0585 37.3767C43.0483 37.3715 43.0406 37.3674 43.0353 37.3646C43.0334 37.3636 43.0318 37.3628 43.0306 37.3621L43.0294 37.3614L43.0278 37.3606L43.0274 37.3603L43.0272 37.3603C43.0272 37.3602 43.0272 37.3602 43.0319 37.351L43.0272 37.3602L43.0597 37.2817C43.9722 37.6043 45.0988 37.5292 46.3029 37.1845C47.5064 36.84 48.783 36.2275 49.9926 35.4812C51.2021 34.7349 52.3435 33.8555 53.2765 32.9783C54.2102 32.1005 54.9329 31.2271 55.3076 30.4932C55.7523 29.6221 55.7025 29.1298 55.4868 28.8815C55.3777 28.7559 55.2213 28.6858 55.0484 28.6611C54.8756 28.6364 54.6892 28.6576 54.5247 28.7119L54.5247 28.7119C54.1987 28.8193 53.9252 28.9797 53.6599 29.1355L53.6574 29.1369C53.3835 29.2977 53.1169 29.4543 52.8154 29.5337C52.5113 29.6138 52.1734 29.6153 51.756 29.4703C51.1523 29.2603 50.6686 28.6047 50.2743 27.827C49.879 27.0474 49.5676 26.1328 49.3141 25.3881L49.3136 25.3867C49.2015 25.0572 49.1008 24.7616 49.009 24.5244C48.9136 24.2784 48.7189 24.0296 48.4822 23.8412C48.2452 23.6527 47.971 23.5285 47.719 23.5246C47.4702 23.5208 47.2395 23.6339 47.0811 23.9292C46.9209 24.2278 46.8335 24.7151 46.8853 25.4594L46.8443 25.4626L46.8853 25.4594C47.1836 29.7506 47.1978 30.4315 46.7786 31.484C46.7592 31.5328 46.7395 31.5829 46.7193 31.634L46.7186 31.6358C46.4774 32.2483 46.1749 33.0165 45.5664 33.6963C44.9564 34.3778 44.0415 34.9679 42.5794 35.2301L42.5728 35.1899L42.5794 35.2301C41.1408 35.4878 40.0485 34.9929 39.3169 34.4342C38.9513 34.1549 38.6756 33.8597 38.4913 33.6342C38.3991 33.5214 38.3296 33.4259 38.2832 33.3585C38.2599 33.3248 38.2424 33.2982 38.2307 33.2798C38.2248 33.2706 38.2204 33.2635 38.2174 33.2587C38.2163 33.257 38.2155 33.2556 38.2148 33.2544L38.214 33.2531L38.2131 33.2516L38.2128 33.2512L38.2128 33.2511C38.2127 33.2511 38.2127 33.251 38.2476 33.2284L38.2127 33.251L38.114 33.0857L38.2702 33.1925C39.6574 34.141 40.9394 33.9571 41.8768 33.5359C42.346 33.325 42.7287 33.0546 42.9942 32.8368C43.1269 32.7279 43.2301 32.6323 43.3001 32.564C43.335 32.5299 43.3617 32.5026 43.3795 32.4839C43.3855 32.4777 43.3904 32.4724 43.3944 32.4682C43.3964 32.4661 43.3981 32.4642 43.3996 32.4626C43.4015 32.4606 43.4029 32.459 43.404 32.4578C44.9116 30.1434 44.8251 27.3632 43.9793 24.4288C43.1331 21.4931 41.5296 18.4123 40.0162 15.5049L40.0158 15.5041C39.1861 13.9102 38.3835 12.3685 37.7493 10.9333C37.1152 9.49827 36.6481 8.16674 36.491 6.99361C36.3932 6.26332 36.448 5.78725 36.598 5.49474C36.6735 5.34753 36.7731 5.24691 36.8886 5.18492C37.0038 5.12312 37.1323 5.101 37.2642 5.10653C37.5269 5.11756 37.8084 5.23851 38.0414 5.38588ZM43.4361 32.4848C43.4662 32.5141 43.4661 32.5141 43.4661 32.5142L43.466 32.5143L43.4656 32.5147L43.4642 32.5163C43.463 32.5176 43.4612 32.5196 43.4588 32.5222C43.4541 32.5273 43.447 32.5348 43.4378 32.5445C43.4193 32.5638 43.392 32.5918 43.3563 32.6267C43.2848 32.6964 43.1798 32.7936 43.045 32.9042C42.7756 33.1253 42.3868 33.4001 41.9093 33.6147C40.9925 34.0267 39.7481 34.2164 38.399 33.3777C38.4399 33.4342 38.4915 33.5022 38.5539 33.5785C38.7351 33.8001 39.0062 34.0905 39.3655 34.3649C40.0838 34.9135 41.1539 35.3984 42.5655 35.1455C44.0115 34.8863 44.9096 34.3044 45.5063 33.6377C46.1039 32.97 46.4017 32.2148 46.6433 31.6014L46.6434 31.601C46.6635 31.55 46.6832 31.5 46.7027 31.4511L46.7381 31.4664L46.7027 31.4511C47.1126 30.4219 47.1022 29.7658 46.8033 25.4657C46.751 24.7144 46.8376 24.2072 47.0093 23.8873C47.1827 23.5641 47.4417 23.4346 47.7202 23.4388C47.9955 23.443 48.2864 23.5775 48.532 23.773C48.7779 23.9686 48.9832 24.229 49.0853 24.4923L49.0853 24.4923C49.1778 24.7313 49.279 25.0286 49.3909 25.3571L49.3911 25.358C49.6451 26.1041 49.9547 27.0132 50.347 27.7869C50.7404 28.5629 51.2112 29.1904 51.782 29.3888C52.1851 29.5289 52.507 29.5265 52.7953 29.4505C53.0853 29.3741 53.3431 29.223 53.6195 29.0607L53.6209 29.0599C53.8851 28.9048 54.1652 28.7403 54.4999 28.6301C54.6747 28.5724 54.8734 28.5494 55.0596 28.5761C55.2457 28.6027 55.4222 28.6794 55.5477 28.8239C55.8013 29.1158 55.8279 29.6566 55.3802 30.5335C54.999 31.2802 54.2683 32.1615 53.3316 33.0421C52.3944 33.9232 51.2486 34.8059 50.0345 35.555C48.8205 36.304 47.5371 36.9202 46.3247 37.2672C45.3422 37.5485 44.4035 37.6538 43.5853 37.5075C43.8765 37.6123 44.2808 37.7305 44.7744 37.8061C45.8368 37.9688 47.3131 37.934 48.9675 37.1426C51.4086 35.9748 54.8774 33.4522 57.7598 29.9497C60.6417 26.4479 62.9344 21.9704 63.0324 16.8918C63.0323 16.891 63.0322 16.8901 63.0321 16.8889C63.0318 16.8863 63.0314 16.8827 63.0309 16.8783C63.0306 16.8766 63.0304 16.8746 63.0301 16.8726C63.0283 16.8583 63.0253 16.8375 63.0206 16.8118C63.0112 16.7604 62.9953 16.6899 62.9692 16.6136C62.9164 16.4596 62.8244 16.2889 62.6673 16.1977C62.5127 16.108 62.2841 16.0893 61.944 16.2629C61.603 16.4371 61.1549 16.8025 60.5688 17.4717C60.3316 17.7424 60.096 18.0191 59.8598 18.2964L59.8598 18.2965L59.8574 18.2992C58.8587 19.4718 57.8495 20.6567 56.6918 21.4287C55.5307 22.2029 54.2188 22.5629 52.6175 22.084C51.019 21.606 49.1365 20.2934 46.8286 17.7346C44.5201 15.1753 41.7831 11.366 38.4761 5.88901C38.4059 5.77295 38.2265 5.60326 37.9988 5.45926C37.7717 5.31568 37.5041 5.20248 37.2609 5.19227C37.1397 5.18719 37.026 5.20767 36.9263 5.26123C36.8268 5.31459 36.7388 5.40207 36.6705 5.53522C36.533 5.80342 36.4754 6.2571 36.5725 6.98173L36.5725 6.98173C36.7278 8.14229 37.191 9.4647 37.824 10.8974C38.457 12.3297 39.2583 13.8692 40.0885 15.464L40.0897 15.4664C41.6018 18.3711 43.2092 21.4591 44.0581 24.4041C44.9072 27.3503 45 30.1627 43.4701 32.5089L43.4683 32.5117L43.4662 32.5141L43.4361 32.4848ZM50.8732 26.3533C50.8732 25.1443 51.8127 24.1642 52.9716 24.1642C54.1305 24.1642 55.07 25.1443 55.07 26.3533C55.07 27.5622 54.1305 28.5423 52.9716 28.5423C51.8127 28.5423 50.8732 27.5622 50.8732 26.3533ZM52.9716 24.2501C51.8581 24.2501 50.9555 25.1917 50.9555 26.3533C50.9555 27.5148 51.8581 28.4565 52.9716 28.4565C54.0851 28.4565 54.9877 27.5148 54.9877 26.3533C54.9877 25.1917 54.0851 24.2501 52.9716 24.2501Z" fill="white"/>
</svg>
