<svg width="24" height="24" viewBox="0 0 24 24" fill="none" xmlns="http://www.w3.org/2000/svg">
<path fill-rule="evenodd" clip-rule="evenodd" d="M12 19.5C14.4853 19.5 16.5 17.4853 16.5 15C16.5 14.4692 16.4081 13.9598 16.2393 13.487C15.8954 14.0919 15.245 14.5 14.4994 14.5C13.3948 14.5 12.4994 13.6046 12.4994 12.5C12.4994 11.7545 12.9073 11.1043 13.512 10.7603C13.0395 10.5918 12.5304 10.5 12 10.5C9.51472 10.5 7.5 12.5147 7.5 15C7.5 17.4853 9.51472 19.5 12 19.5Z" fill="#194866"/>
<path d="M2.25052 11.796C7.21966 6.82682 16.0183 6.47186 21.3423 11.7959" stroke="#133D70" stroke-width="2.5" stroke-linecap="round"/>
</svg>
